<?xml version="1.0" encoding="utf-8"?>
<!-- Generator: Adobe Illustrator 25.2.1, SVG Export Plug-In . SVG Version: 6.00 Build 0)  -->
<svg version="1.1" id="Layer_1" xmlns="http://www.w3.org/2000/svg" xmlns:xlink="http://www.w3.org/1999/xlink" x="0px" y="0px"
	 viewBox="0 0 612 792" style="enable-background:new 0 0 612 792;" xml:space="preserve">
<style type="text/css">
	.st0{fill:#FFFFFF;}
	.st1{fill-rule:evenodd;clip-rule:evenodd;fill:#FFFFFF;}
	.st2{fill:#FFFFFF;stroke:#FFFFFF;stroke-width:0.5;}
</style>
<g>
	<path class="st0" d="M111.6,479.4h12.8v-50.7l19.9,44.2c2.3,5.3,5.6,7.2,11.9,7.2c6.3,0,9.4-1.9,11.7-7.2l19.9-44.2v50.7h12.8
		v-50.6c0-4.9-2-7.3-6.1-8.6c-9.8-3-16.3-0.4-19.3,6.2L155.9,470L137,426.3c-2.8-6.6-9.5-9.2-19.3-6.2c-4.1,1.2-6.1,3.6-6.1,8.6
		V479.4L111.6,479.4z"/>
	<path class="st0" d="M211.4,438.1h12.8V466c-0.1,1.5,0.5,5.1,7.5,5.2c3.6,0.1,27.7,0,27.9,0v-33.3h12.9c0.1,0,0,45.4,0,45.6
		c0.1,11.2-13.9,13.6-20.3,13.8h-40.5v-8.6c0.1,0,40.5,0,40.6,0c8.3-0.9,7.3-5,7.3-6.4v-3.4h-27.3c-12.7-0.1-20.8-5.7-20.9-12
		C211.4,466.3,211.6,438.4,211.4,438.1L211.4,438.1z"/>
	<path class="st0" d="M282.4,479.4h36.9c4.3,0,8.5-0.9,11.9-2.5c5.6-2.6,8.3-6,8.3-10.5V457c0-3.7-3.1-7.2-9.1-9.5
		c-3.2-1.2-7.2-1.9-11-1.9h-15.6c-5.2,0-7.7-1.6-8.3-5c-0.1-0.4-0.1-0.7-0.1-1.2v-5.8c0-0.3,0-0.7,0.1-1.1c0.6-2.6,2-3.4,6.5-3.8
		c0.4,0,0.9-0.1,1.2-0.1h36.7v-8.6h-36.1c-5.2,0-7.9,0.3-10.4,1.1c-7.7,2.4-11,6.2-11,12.8v7.5c0,5.8,6.5,10.7,17.5,11.9
		c1.2,0.1,2.5,0.2,3.7,0.2h13.3c0.5,0,1,0,1.4,0.1c4.1,0.3,5.8,1.1,7,2.6c0.7,0.7,1,1.5,1,2.3v7.5c0,0.9-0.6,2.1-1.9,3
		c-1.1,1-3,1.6-5.4,1.8c-0.5,0-0.9,0.1-1.4,0.1h-35.4V479.4L282.4,479.4z"/>
	<path class="st0" d="M419.6,464.5c0,8.8,6.5,13.7,19.8,14.7c1.2,0.1,2.5,0.2,3.7,0.2h33.5v-8.6h-33.7c-7.5,0-10.4-1.9-10.4-6.4
		v-44.3h-12.8V464.5L419.6,464.5z"/>
	<path class="st0" d="M347.7,464.9v-30.5c0-7.8,5.4-12.5,16.2-13.9c1.1-0.2,2.4-0.2,3.5-0.2h24.4c1.2,0,2.4,0.1,3.6,0.2
		c10.8,1.5,16.2,6.2,16.2,13.9v30.5c0,6.3-2.3,9.7-7.6,11.9l12.6,11.4h-14.9l-10.2-9.2l-10.3,0.7h-13.7c-2.4,0-4.8-0.3-7.5-1.1
		C351.6,476.3,347.7,472,347.7,464.9L347.7,464.9z M361.5,464.2c0,0.4,0.1,0.8,0.2,1.3c0.7,3.5,4.1,5.5,9.2,5.5h11.7l-10.7-9.7h14.9
		l9.3,8.4c1.7-0.9,2.9-2.3,3.3-4.1c0.1-0.4,0.1-0.8,0.1-1.2v-29.3c0-0.3,0-0.7-0.1-1.2c-0.7-3.3-4.1-5.2-9-5.2h-19.4
		c-5.7,0-9.4,2.5-9.4,6.4V464.2L361.5,464.2z"/>
	<path class="st0" d="M487.8,405.9c-7.9-0.2-13.9,0.5-19.1,2.7c-1.5,0.6-3.8,0.6-4,2.5c0.8,0.8,0.9,2.1,1.6,3.1
		c1.2,2,3.3,4.7,5.2,6.1c2,1.5,4.1,3.2,6.3,4.5c3.9,2.4,8.2,3.7,11.9,6.1c2.2,1.4,4.4,3.1,6.5,4.7c1.1,0.8,1.8,2,3.1,2.5
		c0-0.1,0-0.1,0-0.2c-0.7-0.9-0.9-2.2-1.6-3.1c-1-1-1.9-1.9-2.9-2.9c-2.9-3.8-6.5-7.1-10.3-9.9c-3.1-2.2-9.9-5.2-11.2-8.8
		c-0.1-0.1-0.2-0.1-0.2-0.2c2.2-0.2,4.7-1,6.7-1.6c3.4-0.9,6.4-0.7,9.9-1.6c1.6-0.4,3.1-0.9,4.7-1.3c0-0.3,0-0.6,0-0.9
		c-1.8-1.8-3-4.2-4.9-5.8c-5-4.3-10.5-8.6-16.2-12.1c-3.1-2-7-3.3-10.3-4.9c-1.1-0.6-3.1-0.9-3.8-1.8c-1.7-2.2-2.7-5-4-7.6
		c-2.8-5.4-5.6-11.4-8.1-17.1c-1.7-3.9-2.8-7.7-4.9-11.2c-10.2-16.8-21.2-26.9-38.2-36.8c-3.6-2.1-8-2.9-12.6-4
		c-2.5-0.1-4.9-0.3-7.4-0.4c-1.5-0.6-3.1-2.5-4.5-3.4c-5.6-3.6-20.1-11.3-24.2-1.1c-2.6,6.4,3.9,12.7,6.3,15.9
		c1.7,2.3,3.8,4.8,4.9,7.4c0.8,1.7,0.9,3.4,1.6,5.2c1.6,4.4,3.1,9.2,5.2,13.2c1.1,2.1,2.2,4.2,3.6,6.1c0.8,1.1,2.2,1.6,2.5,3.4
		c-1.4,1.9-1.5,5-2.2,7.4c-3.5,11.1-2.2,24.8,2.9,33c1.6,2.5,5.3,7.9,10.3,5.8c4.4-1.8,3.4-7.4,4.7-12.3c0.3-1.1,0.1-1.9,0.7-2.7
		c0,0.1,0,0.1,0,0.2c1.3,2.7,2.7,5.4,4,8.1c3,4.8,8.3,9.8,12.8,13.2c2.3,1.8,4.2,4.8,7.2,5.8c0-0.1,0-0.2,0-0.2c-0.1,0-0.2,0-0.2,0
		c-0.6-0.9-1.5-1.3-2.2-2c-1.8-1.7-3.7-3.9-5.2-5.8c-4.1-5.6-7.7-11.6-11-18c-1.6-3-2.9-6.4-4.3-9.4c-0.5-1.2-0.5-3-1.6-3.6
		c-1.5,2.3-3.6,4.1-4.7,6.7c-1.8,4.3-2,9.4-2.7,14.8c-0.4,0.1-0.2,0-0.4,0.2c-3.1-0.8-4.2-4-5.4-6.7c-2.9-7-3.5-18.2-0.9-26.3
		c0.7-2.1,3.7-8.6,2.5-10.6c-0.6-1.9-2.5-3-3.6-4.5c-1.3-1.8-2.7-4.2-3.6-6.3c-2.4-5.4-3.5-11.6-6.1-17.1c-1.2-2.6-3.3-5.3-4.9-7.6
		c-1.9-2.6-3.9-4.5-5.4-7.6c-0.5-1.1-1.2-2.9-0.4-4c0.2-0.8,0.6-1.1,1.3-1.3c1.3-1,4.9,0.3,6.3,0.9c3.6,1.5,6.6,2.9,9.7,4.9
		c1.5,1,2.9,2.8,4.7,3.4c0.7,0,1.3,0,2,0c3.2,0.7,6.7,0.2,9.7,1.1c5.2,1.6,9.9,4.1,14.1,6.7c12.9,8.2,23.5,19.8,30.8,33.7
		c1.2,2.2,1.7,4.4,2.7,6.7c2.1,4.8,4.7,9.7,6.7,14.4c2.1,4.7,4.1,9.4,7,13.2c1.5,2,7.4,3.1,10.1,4.3c1.9,0.8,5,1.6,6.7,2.7
		c3.4,2,6.7,4.5,9.9,6.7C482.7,401.4,487.5,403.9,487.8,405.9L487.8,405.9z"/>
	<path class="st1" d="M387.5,320.4c-1.6,0-2.8,0.2-4,0.4c0,0.1,0,0.1,0,0.2c0.1,0,0.2,0,0.2,0c0.8,1.6,2.2,2.7,3.1,4
		c0.7,1.6,1.5,3.1,2.2,4.7c0.1-0.1,0.2-0.1,0.2-0.2c1.4-1,2-2.5,2-4.9c-0.6-0.6-0.6-1.3-1.1-2C389.5,321.7,388.3,321.1,387.5,320.4
		L387.5,320.4z"/>
	<path class="st1" d="M482.5,470.5c0,5.7,4.5,9.5,9.5,9.5c5,0,9.5-3.8,9.5-9.5c0-5.7-4.5-9.5-9.5-9.5
		C487,461.1,482.5,464.9,482.5,470.5L482.5,470.5z M499.3,470.5c0,4.3-3.3,7.5-7.3,7.5c-4.1,0-7.3-3.2-7.3-7.5
		c0-4.3,3.2-7.5,7.3-7.5C496,463.1,499.3,466.3,499.3,470.5L499.3,470.5z M494.5,476h2.1l-3.1-4.7c1.7-0.2,2.9-1,2.9-3
		c0-2.2-1.4-3.1-4.1-3.1h-4.2V476h1.8v-4.7h1.7L494.5,476L494.5,476z M490,469.8v-3.1h2.1c1.1,0,2.4,0.2,2.4,1.5
		c0,1.5-1.2,1.6-2.5,1.6H490L490,469.8z"/>
	<g>
		<g>
			<path class="st2" d="M116.3,405.5h-4.4v-19h4.4V405.5z"/>
			<path class="st2" d="M134.2,405.5h-4.1V397c0-1-0.1-2.8-2.7-2.8c-1.8,0-3.2,1.1-3.2,3.3v8.1h-4.1v-14.1h3.9v2.1h0.1
				c0.6-0.8,1.7-2.4,4.7-2.4c3.1,0,5.4,1.6,5.4,4.7V405.5z"/>
			<path class="st2" d="M151.5,400.4c-0.1,1.5-1.4,5.5-7.1,5.5c-5.9,0-7.2-4-7.2-7c0-4.5,2.2-7.8,7.5-7.8c2.5,0,6.5,1,6.9,5.4h-4.2
				c-0.2-0.9-0.8-2.3-2.5-2.3h-0.2c-2.6,0-3.3,2.3-3.3,4.1c0,1.5,0.1,4.6,3.2,4.6c2.1,0,2.8-1.8,2.8-2.5H151.5z"/>
			<path class="st2" d="M158.6,405.5h-4.1v-19h4.1V405.5z"/>
			<path class="st2" d="M176.6,405.5h-3.9v-2h-0.1c-0.9,1.5-2.6,2.4-4.8,2.4c-3.1,0-5.3-1.6-5.3-5.2v-9.3h4.1v8.7
				c0,2.2,1.4,2.6,2.7,2.6c1.4,0,3.2-0.7,3.2-3.2v-8.1h4.1V405.5z"/>
			<path class="st2" d="M194.8,405.5h-4v-1.8h-0.1c-1,1.6-2.8,2.1-4.5,2.1c-4.6,0-6.6-3.7-6.6-7.6c0-4.9,3.1-7.2,6.5-7.2
				c2.6,0,3.9,1.3,4.5,2.2h0.1v-6.7h4.1V405.5z M187.2,402.8c2.6,0,3.6-2,3.6-4c0-2.2-0.7-4.5-3.5-4.5c-2.6,0-3.5,2.1-3.5,4.3
				C183.8,400.2,184.5,402.8,187.2,402.8z"/>
			<path class="st2" d="M211.9,401.4c-1.1,3.4-4.2,4.5-6.9,4.5c-4.4,0-7.8-1.9-7.8-7.7c0-1.7,0.6-7.1,7.5-7.1c3.1,0,7.3,1.3,7.3,7.7
				v0.7h-10.7c0.1,1.1,0.4,3.4,3.7,3.4c1.1,0,2.3-0.5,2.6-1.5H211.9z M207.8,397.1c-0.2-2.3-1.9-3-3.2-3c-1.9,0-3,1.1-3.2,3H207.8z"
				/>
			<path class="st2" d="M223.6,395.7c-0.2-0.9-0.5-1.9-2.8-1.9s-2.5,0.8-2.5,1.4c0,2.2,9.8,0.6,9.8,5.8c0,4.1-4.4,4.8-6.8,4.8
				c-3.6,0-7.4-1.1-7.5-4.9h4.2c0,1.2,0.8,2.1,3.4,2.1c2.1,0,2.6-0.9,2.6-1.5c0-2.4-9.7-0.6-9.7-5.8c0-2.1,1.4-4.7,6.3-4.7
				c3.1,0,6.7,0.7,7,4.7H223.6z"/>
		</g>
	</g>
</g>
</svg>
