<?xml version="1.0" encoding="utf-8"?>
<!-- Generator: Adobe Illustrator 25.2.1, SVG Export Plug-In . SVG Version: 6.00 Build 0)  -->
<svg version="1.1" id="Layer_1" xmlns="http://www.w3.org/2000/svg" xmlns:xlink="http://www.w3.org/1999/xlink" x="0px" y="0px"
	 viewBox="0 0 262.2 364" style="enable-background:new 0 0 262.2 364;" xml:space="preserve">
<style type="text/css">
	.st0{fill:#D5E7ED;}
	.st1{fill:#FFFFFF;}
	.st2{fill:#16526A;}
	.st3{fill:none;stroke:#E6AA43;stroke-width:2;stroke-miterlimit:10;}
	.st4{fill:#ACACAD;}
	.st5{fill:#B2732B;}
	.st6{font-family:'MrLackboughsPro';}
	.st7{font-size:60.5688px;}
</style>
<rect class="st0" width="262.2" height="364"/>
<g>
	<path class="st1" d="M50.5,109.2c0,40.7,29.8,71.5,80.9,72.6c41.4,0.9,82.5-33,85.5-73.6c4-54.5-44.9-84.1-81.9-84.1
		C93.6,24.2,50.5,49.6,50.5,109.2z"/>
	<g>
		<g>
			<g>
				<g>
					<path class="st2" d="M130,107.1c-1.9,1.1-4.1,1.9-6.7,2.5l21.1,35.6h-9.8l-20.7-34.9h-13.6v34.9h-8.8v-73
						c4-0.3,10.5-0.6,17-0.8 M109.1,72.5c-2.6,0.1-5.9,0.3-8.9,0.6v36.1h15.6c4.5-0.2,8.9-1.7,11.7-6.1"/>
				</g>
				<g>
					<path class="st2" d="M150.6,141.5c5.4,2.9,10.8,3.1,13.5,3.1c10.3,0,19-2.8,19-2.8l0.3,1.1c0,0-8,2.8-19.3,2.8
						c-4,0-7.9-0.3-11.7-1.2 M127.6,103.1c2.2-24.4,19.5-31.8,36.5-31.8c9.4,0,16.1,2.8,16.1,2.8l-0.3,1.1c0,0-7.2-2.8-15.8-2.8
						c-5.5-0.1-28,1.2-28,36.1c0,3.7,0.2,7,0.7,9.9"/>
				</g>
				<line class="st3" x1="96.3" y1="51.2" x2="165.3" y2="165.8"/>
			</g>
		</g>
	</g>
	<g>
		<path class="st4" d="M50.9,98.9c-0.6,7.6,0.7,15.3,2.3,23.1c9.2,44.2,52.2,64.7,97.1,56.9c36.2-6.3,69.4-43.4,66-88.5l0,0
			c5.7,48.8-25,85.2-64.9,93.6c-44.8,9.5-89.6-14.8-99.2-57.3c-2-9-2.6-18.8-1.4-27.5L50.9,98.9z"/>
		<path class="st4" d="M72.6,152.1c-7-9.5-10.4-18.7-12.4-31.2c-6.6-41.6,21.7-80.6,63.3-87.2s87.1,23.4,87.8,65.5
			c0,2.9-0.6,8.9-0.5,10l0,0c0.4-2.5,2.5-9.4,1.7-17.9c-3.8-39-48.1-68.9-90.9-62.1s-72.2,45.7-65.7,86.8
			C58,129.8,64,142.1,72.6,152.1L72.6,152.1z"/>
	</g>
</g>
<text transform="matrix(1 0 0 1 18.8147 326.0263)" class="st5 st6 st7">ReCollect</text>
</svg>
