<?xml version="1.0" encoding="utf-8"?>
<!-- Generator: Adobe Illustrator 25.2.1, SVG Export Plug-In . SVG Version: 6.00 Build 0)  -->
<svg version="1.1" id="Layer_1" xmlns="http://www.w3.org/2000/svg" xmlns:xlink="http://www.w3.org/1999/xlink" x="0px" y="0px"
	 viewBox="0 0 199 374" style="enable-background:new 0 0 199 374;" xml:space="preserve">
<style type="text/css">
	.st0{fill:#D5E7ED;}
	.st1{fill:#FFFFFF;}
	.st2{fill:#16526A;}
	.st3{fill:none;stroke:#E6AA43;stroke-width:2;stroke-miterlimit:10;}
	.st4{fill:#ACACAD;}
</style>
<rect class="st0" width="199" height="374"/>
<g>
	<path class="st1" d="M15.6,276.9c0,40.7,29.8,71.5,80.9,72.6c41.4,0.9,82.5-33,85.5-73.6c4-54.5-44.9-84.1-81.9-84.1
		C58.7,191.8,15.6,217.2,15.6,276.9z"/>
	<g>
		<g>
			<g>
				<g>
					<path class="st2" d="M95.1,274.8c-1.9,1.1-4.1,1.9-6.7,2.5l21.1,35.6h-9.8L79,278H65.4v34.9h-8.8v-73c4-0.3,10.5-0.6,17-0.8
						 M74.3,240.2c-2.6,0.1-5.9,0.3-8.9,0.6v36.1H81c4.5-0.2,8.9-1.7,11.7-6.1"/>
				</g>
				<g>
					<path class="st2" d="M115.7,309.2c5.4,2.9,10.8,3.1,13.5,3.1c10.3,0,19-2.8,19-2.8l0.3,1.1c0,0-8,2.8-19.3,2.8
						c-4,0-7.9-0.3-11.7-1.2 M92.7,270.8c2.2-24.4,19.5-31.8,36.5-31.8c9.4,0,16.1,2.8,16.1,2.8l-0.3,1.1c0,0-7.2-2.8-15.8-2.8
						c-5.5-0.1-28,1.2-28,36.1c0,3.7,0.2,7,0.7,9.9"/>
				</g>
				<line class="st3" x1="61.5" y1="218.9" x2="130.4" y2="333.5"/>
			</g>
		</g>
	</g>
	<g>
		<path class="st4" d="M16.1,266.6c-0.6,7.6,0.7,15.3,2.3,23.1c9.2,44.2,52.2,64.7,97.1,56.9c36.2-6.3,69.4-43.4,66-88.5l0,0
			c5.7,48.8-25,85.2-64.9,93.6c-44.8,9.5-89.6-14.8-99.2-57.3c-2-9-2.6-18.8-1.4-27.5L16.1,266.6z"/>
		<path class="st4" d="M37.7,319.8c-7-9.5-10.4-18.7-12.4-31.2C18.7,247,47,207.9,88.6,201.3c41.6-6.6,87.1,23.4,87.8,65.5
			c0,2.9-0.6,8.9-0.5,10l0,0c0.4-2.5,2.5-9.4,1.7-17.9c-3.8-39-48.1-68.9-90.9-62.1S14.4,242.5,21,283.6
			C23.2,297.4,29.1,309.8,37.7,319.8L37.7,319.8z"/>
	</g>
</g>
</svg>
