<?xml version="1.0" encoding="utf-8"?>
<!-- Generator: Adobe Illustrator 25.2.1, SVG Export Plug-In . SVG Version: 6.00 Build 0)  -->
<svg version="1.1" id="Layer_1" xmlns="http://www.w3.org/2000/svg" xmlns:xlink="http://www.w3.org/1999/xlink" x="0px" y="0px"
	 viewBox="0 0 191 191" style="enable-background:new 0 0 191 191;" xml:space="preserve">
<style type="text/css">
	.st0{fill:#16526A;stroke:#000000;stroke-miterlimit:10;}
	.st1{fill:#FFFFFF;}
	.st2{fill:#FFFFFF;stroke:#E6AA43;stroke-miterlimit:10;}
	.st3{fill:#FFFFFF;stroke:#FFFFFF;stroke-width:0.25;stroke-miterlimit:10;}
	.st4{font-family:'MrLackboughsPro';}
	.st5{font-size:35.7392px;}
</style>
<g>
	<rect x="0.5" y="0.5" class="st0" width="190" height="190"/>
	<g>
		<g>
			<g>
				<g>
					<g>
						<path class="st1" d="M98.6,100.6c-2.4,1.4-5.2,2.5-8.5,3.2l26.7,45h-12.4l-26.2-44.2H60.9v44.2H49.9V56.4
							c5.1-0.3,13.3-0.8,21.5-1 M72.2,56.8c-3.3,0.1-7.4,0.4-11.3,0.8v45.7h19.8c5.7-0.2,11.2-2.1,14.8-7.7"/>
					</g>
					<g>
						<path class="st1" d="M124.7,144c6.8,3.6,13.6,3.9,17.1,3.9c13.1,0,24-3.6,24-3.6l0.4,1.3c0,0-10.1,3.6-24.4,3.6
							c-5,0-10-0.4-14.8-1.5 M95.5,95.5c2.8-30.9,24.7-40.2,46.2-40.2c11.9,0,20.4,3.6,20.4,3.6l-0.4,1.3c0,0-9.1-3.6-20-3.6
							c-6.9-0.1-35.5,1.5-35.5,45.7c0,4.6,0.3,8.8,0.9,12.5"/>
					</g>
					<line class="st2" x1="56" y1="29.8" x2="143.2" y2="174.8"/>
				</g>
			</g>
		</g>
		<text transform="matrix(0 -1 1 0 37.2573 149.2436)" class="st3 st4 st5">recollect</text>
	</g>
</g>
</svg>
