<?xml version="1.0" encoding="utf-8"?>
<!-- Generator: Adobe Illustrator 25.2.1, SVG Export Plug-In . SVG Version: 6.00 Build 0)  -->
<svg version="1.1" id="Layer_1" xmlns="http://www.w3.org/2000/svg" xmlns:xlink="http://www.w3.org/1999/xlink" x="0px" y="0px"
	 viewBox="0 0 17 17" style="enable-background:new 0 0 17 17;" xml:space="preserve">
<style type="text/css">
	.st0{fill:#FFFFFF;}
</style>
<path class="st0" d="M12.2,10.8c2.1-2.9,1.5-7-1.4-9.1s-7-1.5-9.1,1.4s-1.5,7,1.4,9.1c2.3,1.7,5.4,1.7,7.7,0h0c0,0,0.1,0.1,0.1,0.1
	l3.8,3.8c0.4,0.4,1,0.4,1.4,0c0.4-0.4,0.4-1,0-1.4l-3.8-3.9C12.3,10.9,12.3,10.9,12.2,10.8L12.2,10.8z M12.5,7c0,3-2.5,5.5-5.5,5.5
	S1.5,10,1.5,7S4,1.5,7,1.5S12.5,4,12.5,7z"/>
</svg>
